SplineFontDB: 3.0
FontName: Pixellifesmallcap
FullName: pixellife  small cap
FamilyName: pixellife
Weight: Book
Copyright: sloppyright 1998,1999 williac.com
Version: Macromedia Fontographer 4.1.5 10/12/99
ItalicAngle: 0
UnderlinePosition: -123
UnderlineWidth: 20
Ascent: 800
Descent: 200
sfntRevision: 0x00010000
LayerCount: 2
Layer: 0 1 "Back"  1
Layer: 1 1 "Fore"  0
XUID: [1021 720 3796 2852]
FSType: 1
OS2Version: 0
OS2_WeightWidthSlopeOnly: 0
OS2_UseTypoMetrics: 1
CreationTime: 939771220
ModificationTime: 1398444267
PfmFamily: 81
TTFWeight: 400
TTFWidth: 5
LineGap: 0
VLineGap: 0
Panose: 0 0 4 0 0 0 0 0 0 0
OS2TypoAscent: 800
OS2TypoAOffset: 0
OS2TypoDescent: -200
OS2TypoDOffset: 0
OS2TypoLinegap: 0
OS2WinAscent: 800
OS2WinAOffset: 0
OS2WinDescent: 0
OS2WinDOffset: 0
HheadAscent: 800
HheadAOffset: 0
HheadDescent: -200
HheadDOffset: 0
OS2SubXSize: 700
OS2SubYSize: 650
OS2SubXOff: 0
OS2SubYOff: 143
OS2SupXSize: 700
OS2SupYSize: 650
OS2SupXOff: 0
OS2SupYOff: 453
OS2StrikeYSize: 50
OS2StrikeYPos: 259
OS2Vendor: 'Alts'
OS2UnicodeRanges: 00000000.00000000.00000000.00000000
DEI: 91125
TtTable: prep
NPUSHB
 21
 13
 13
 12
 12
 11
 11
 10
 10
 9
 9
 8
 8
 7
 7
 2
 2
 1
 1
 0
 0
 1
SCANTYPE
PUSHW_1
 511
SCANCTRL
RCVT
ROUND[Grey]
WCVTP
RCVT
ROUND[Grey]
WCVTP
RCVT
ROUND[Grey]
WCVTP
RCVT
ROUND[Grey]
WCVTP
RCVT
ROUND[Grey]
WCVTP
RCVT
ROUND[Grey]
WCVTP
RCVT
ROUND[Grey]
WCVTP
RCVT
ROUND[Grey]
WCVTP
RCVT
ROUND[Grey]
WCVTP
RCVT
ROUND[Grey]
WCVTP
PUSHB_4
 4
 3
 70
 0
CALL
PUSHB_4
 6
 5
 70
 0
CALL
PUSHB_2
 3
 3
RCVT
ROUND[Grey]
WCVTP
PUSHB_2
 5
 5
RCVT
ROUND[Grey]
WCVTP
EndTTInstrs
TtTable: fpgm
NPUSHB
 1
 0
FDEF
SROUND
RCVT
DUP
PUSHB_1
 3
CINDEX
RCVT
SWAP
SUB
ROUND[Grey]
RTG
SWAP
ROUND[Grey]
ADD
WCVTP
ENDF
EndTTInstrs
ShortTable: cvt  184
  2
  525
  600
  202
  76
  76
  96
  298
  373
  230
  497
  401
  377
  496
  23810
  11886
  -16610
  20391
  -15810
  17832
  -504
  -12431
  5817
  17544
  -21037
  -2301
  28714
  4800
  -32135
  14679
  -23861
  19573
  -6122
  -31092

StartChar: .notdef
Encoding: 65536 -1 0
Width: 500
Flags: W
LayerCount: 2
Fore
SplineSet
63 0 m 1,0,-1
 63 800 l 1,1,-1
 438 800 l 1,2,-1
 438 0 l 1,3,-1
 63 0 l 1,0,-1
125 63 m 1,4,-1
 375 63 l 1,5,-1
 375 738 l 1,6,-1
 125 738 l 1,7,-1
 125 63 l 1,4,-1
EndSplineSet
Validated: 1
EndChar

StartChar: exclam
Encoding: 33 33 4
Width: 253
Flags: W
LayerCount: 2
Fore
SplineSet
199 0 m 1,0,-1
 0 0 l 1,1,-1
 0 92 l 1,2,-1
 199 92 l 1,3,-1
 199 0 l 1,0,-1
199 223 m 1,4,-1
 0 223 l 1,5,-1
 1 589 l 1,6,-1
 200 589 l 1,7,-1
 199 223 l 1,4,-1
EndSplineSet
Validated: 1
EndChar

StartChar: period
Encoding: 46 46 5
Width: 253
Flags: W
LayerCount: 2
Fore
SplineSet
199 0 m 1,0,-1
 0 0 l 1,1,-1
 0 92 l 1,2,-1
 199 92 l 1,3,-1
 199 0 l 1,0,-1
EndSplineSet
Validated: 1
EndChar

StartChar: zero
Encoding: 48 48 6
Width: 681
Flags: W
LayerCount: 2
Fore
SplineSet
643 16 m 1,0,-1
 39 16 l 1,1,-1
 39 620 l 1,2,-1
 542 620 l 1,3,-1
 542 512 l 1,4,-1
 643 512 l 1,5,-1
 643 16 l 1,0,-1
440 123 m 1,6,-1
 440 512 l 1,7,-1
 146 512 l 1,8,-1
 146 123 l 1,9,-1
 440 123 l 1,6,-1
333 218 m 1,10,-1
 241 218 l 1,11,-1
 241 417 l 1,12,-1
 333 417 l 1,13,-1
 333 218 l 1,10,-1
EndSplineSet
Validated: 1
EndChar

StartChar: one
Encoding: 49 49 7
Width: 681
Flags: W
LayerCount: 2
Fore
SplineSet
541 16 m 1,0,-1
 140 16 l 1,1,-1
 140 111 l 1,2,-1
 244 111 l 1,3,-1
 244 409 l 1,4,-1
 140 409 l 1,5,-1
 140 519 l 1,6,-1
 244 519 l 1,7,-1
 244 608 l 1,8,-1
 440 608 l 1,9,-1
 440 111 l 1,10,-1
 541 111 l 1,11,-1
 541 16 l 1,0,-1
EndSplineSet
Validated: 1
EndChar

StartChar: two
Encoding: 50 50 8
Width: 681
Flags: W
LayerCount: 2
Fore
SplineSet
541 201 m 1,0,-1
 238 201 l 1,1,-1
 238 108 l 1,2,-1
 541 108 l 1,3,-1
 541 16 l 1,4,-1
 140 16 l 1,5,-1
 140 316 l 1,6,-1
 432 316 l 1,7,-1
 432 409 l 1,8,-1
 140 409 l 1,9,-1
 140 608 l 1,10,-1
 440 608 l 1,11,-1
 440 512 l 1,12,-1
 541 512 l 1,13,-1
 541 201 l 1,0,-1
EndSplineSet
Validated: 1
EndChar

StartChar: three
Encoding: 51 51 9
Width: 681
Flags: W
LayerCount: 2
Fore
SplineSet
589 16 m 1,0,-1
 92 16 l 1,1,-1
 92 114 l 1,2,-1
 491 114 l 1,3,-1
 491 207 l 1,4,-1
 295 207 l 1,5,-1
 295 313 l 1,6,-1
 384 313 l 1,7,-1
 384 409 l 1,8,-1
 92 409 l 1,9,-1
 92 519 l 1,10,-1
 187 519 l 1,11,-1
 187 608 l 1,12,-1
 499 608 l 1,13,-1
 499 313 l 1,14,-1
 589 313 l 1,15,-1
 589 16 l 1,0,-1
EndSplineSet
Validated: 1
EndChar

StartChar: four
Encoding: 52 52 10
Width: 681
Flags: W
LayerCount: 2
Fore
SplineSet
536 16 m 1,0,-1
 441 16 l 1,1,-1
 441 207 l 1,2,-1
 146 207 l 1,3,-1
 146 518 l 1,4,-1
 241 518 l 1,5,-1
 241 608 l 1,6,-1
 351 608 l 1,7,-1
 351 316 l 1,8,-1
 441 316 l 1,9,-1
 441 608 l 1,10,-1
 536 608 l 1,11,-1
 536 16 l 1,0,-1
EndSplineSet
Validated: 1
EndChar

StartChar: five
Encoding: 53 53 11
Width: 681
Flags: W
LayerCount: 2
Fore
SplineSet
535 16 m 1,0,-1
 146 16 l 1,1,-1
 146 114 l 1,2,-1
 438 114 l 1,3,-1
 438 207 l 1,4,-1
 146 207 l 1,5,-1
 146 518 l 1,6,-1
 241 518 l 1,7,-1
 241 608 l 1,8,-1
 535 608 l 1,9,-1
 535 510 l 1,10,-1
 339 510 l 1,11,-1
 339 310 l 1,12,-1
 535 310 l 1,13,-1
 535 16 l 1,0,-1
EndSplineSet
Validated: 1
EndChar

StartChar: six
Encoding: 54 54 12
Width: 681
Flags: W
LayerCount: 2
Fore
SplineSet
541 16 m 1,0,-1
 140 16 l 1,1,-1
 140 518 l 1,2,-1
 247 518 l 1,3,-1
 247 608 l 1,4,-1
 345 608 l 1,5,-1
 345 405 l 1,6,-1
 541 405 l 1,7,-1
 541 16 l 1,0,-1
446 111 m 1,8,-1
 446 310 l 1,9,-1
 343 310 l 1,10,-1
 343 111 l 1,11,-1
 446 111 l 1,8,-1
EndSplineSet
Validated: 1
EndChar

StartChar: seven
Encoding: 55 55 13
Width: 681
Flags: W
LayerCount: 2
Fore
SplineSet
589 16 m 1,0,-1
 384 16 l 1,1,-1
 384 409 l 1,2,-1
 288 409 l 1,3,-1
 288 516 l 1,4,-1
 92 516 l 1,5,-1
 92 608 l 1,6,-1
 589 608 l 1,7,-1
 589 16 l 1,0,-1
EndSplineSet
Validated: 1
EndChar

StartChar: eight
Encoding: 56 56 14
Width: 681
Flags: W
LayerCount: 2
Fore
SplineSet
589 16 m 1,0,-1
 92 16 l 1,1,-1
 92 620 l 1,2,-1
 487 620 l 1,3,-1
 487 512 l 1,4,-1
 589 512 l 1,5,-1
 589 16 l 1,0,-1
386 421 m 1,6,-1
 386 512 l 1,7,-1
 187 512 l 1,8,-1
 187 421 l 1,9,-1
 386 421 l 1,6,-1
386 123 m 1,10,-1
 386 310 l 1,11,-1
 187 310 l 1,12,-1
 187 123 l 1,13,-1
 386 123 l 1,10,-1
EndSplineSet
Validated: 1
EndChar

StartChar: nine
Encoding: 57 57 15
Width: 681
Flags: W
LayerCount: 2
Fore
SplineSet
589 16 m 1,0,-1
 491 16 l 1,1,-1
 491 218 l 1,2,-1
 92 218 l 1,3,-1
 92 620 l 1,4,-1
 499 620 l 1,5,-1
 499 512 l 1,6,-1
 589 512 l 1,7,-1
 589 16 l 1,0,-1
493 314 m 1,8,-1
 493 417 l 1,9,-1
 199 417 l 1,10,-1
 199 314 l 1,11,-1
 493 314 l 1,8,-1
EndSplineSet
Validated: 1
EndChar

StartChar: A
Encoding: 65 65 20
Width: 466
Flags: W
LayerCount: 2
Fore
SplineSet
401 3 m 1,0,-1
 292 3 l 1,1,-1
 292 104 l 1,2,-1
 199 104 l 1,3,-1
 199 3 l 1,4,-1
 0 3 l 1,5,-1
 0 505 l 1,6,-1
 95 505 l 1,7,-1
 95 607 l 1,8,-1
 401 607 l 1,9,-1
 401 3 l 1,0,-1
294 205 m 1,10,-1
 294 404 l 1,11,-1
 202 404 l 1,12,-1
 202 205 l 1,13,-1
 294 205 l 1,10,-1
EndSplineSet
Validated: 1
EndChar

StartChar: B
Encoding: 66 66 21
Width: 554
Flags: W
LayerCount: 2
Fore
SplineSet
497 0 m 1,0,-1
 0 0 l 1,1,-1
 0 502 l 1,2,-1
 95 502 l 1,3,-1
 95 604 l 1,4,-1
 407 604 l 1,5,-1
 407 294 l 1,6,-1
 497 294 l 1,7,-1
 497 0 l 1,0,-1
294 298 m 1,8,-1
 294 496 l 1,9,-1
 202 496 l 1,10,-1
 202 298 l 1,11,-1
 294 298 l 1,8,-1
401 107 m 1,12,-1
 401 199 l 1,13,-1
 203 199 l 1,14,-1
 203 107 l 1,15,-1
 401 107 l 1,12,-1
EndSplineSet
Validated: 1
EndChar

StartChar: C
Encoding: 67 67 22
Width: 431
Flags: W
LayerCount: 2
Fore
SplineSet
389 3 m 1,0,-1
 92 3 l 1,1,-1
 91 110 l 1,2,-1
 0 110 l 1,3,-1
 0 505 l 1,4,-1
 92 505 l 1,5,-1
 92 607 l 1,6,-1
 389 607 l 1,7,-1
 389 497 l 1,8,-1
 205 497 l 1,9,-1
 206 107 l 1,10,-1
 389 107 l 1,11,-1
 389 3 l 1,0,-1
EndSplineSet
Validated: 1
EndChar

StartChar: D
Encoding: 68 68 23
Width: 452
Flags: W
LayerCount: 2
Fore
SplineSet
390 0 m 1,0,-1
 0 0 l 1,1,-1
 0 407 l 1,2,-1
 191 407 l 1,3,-1
 191 604 l 1,4,-1
 300 604 l 1,5,-1
 300 496 l 1,6,-1
 390 496 l 1,7,-1
 390 0 l 1,0,-1
187 107 m 1,8,-1
 187 294 l 1,9,-1
 95 294 l 1,10,-1
 95 107 l 1,11,-1
 187 107 l 1,8,-1
EndSplineSet
Validated: 1
EndChar

StartChar: E
Encoding: 69 69 24
Width: 445
Flags: W
LayerCount: 2
Fore
SplineSet
401 0 m 1,0,-1
 0 0 l 1,1,-1
 0 502 l 1,2,-1
 107 502 l 1,3,-1
 107 604 l 1,4,-1
 401 604 l 1,5,-1
 401 494 l 1,6,-1
 205 494 l 1,7,-1
 205 294 l 1,8,-1
 306 294 l 1,9,-1
 306 196 l 1,10,-1
 205 196 l 1,11,-1
 205 104 l 1,12,-1
 401 104 l 1,13,-1
 401 0 l 1,0,-1
EndSplineSet
Validated: 1
EndChar

StartChar: F
Encoding: 70 70 25
Width: 437
Flags: W
LayerCount: 2
Fore
SplineSet
401 494 m 1,0,-1
 202 494 l 1,1,-1
 202 294 l 1,2,-1
 294 294 l 1,3,-1
 294 196 l 1,4,-1
 202 196 l 1,5,-1
 202 0 l 1,6,-1
 0 0 l 1,7,-1
 0 502 l 1,8,-1
 107 502 l 1,9,-1
 107 604 l 1,10,-1
 401 604 l 1,11,-1
 401 494 l 1,0,-1
EndSplineSet
Validated: 1
EndChar

StartChar: G
Encoding: 71 71 26
Width: 542
Flags: W
LayerCount: 2
Fore
SplineSet
497 0 m 1,0,-1
 92 0 l 1,1,-1
 92 92 l 1,2,-1
 0 92 l 1,3,-1
 0 502 l 1,4,-1
 92 502 l 1,5,-1
 92 592 l 1,6,-1
 404 592 l 1,7,-1
 404 494 l 1,8,-1
 205 494 l 1,9,-1
 205 101 l 1,10,-1
 396 101 l 1,11,-1
 396 202 l 1,12,-1
 298 202 l 1,13,-1
 298 294 l 1,14,-1
 497 294 l 1,15,-1
 497 0 l 1,0,-1
EndSplineSet
Validated: 1
EndChar

StartChar: H
Encoding: 72 72 27
Width: 466
Flags: W
LayerCount: 2
Fore
SplineSet
401 0 m 1,0,-1
 295 0 l 1,1,-1
 295 196 l 1,2,-1
 202 196 l 1,3,-1
 202 0 l 1,4,-1
 0 0 l 1,5,-1
 0 502 l 1,6,-1
 95 502 l 1,7,-1
 95 592 l 1,8,-1
 202 592 l 1,9,-1
 202 300 l 1,10,-1
 295 300 l 1,11,-1
 295 592 l 1,12,-1
 401 592 l 1,13,-1
 401 0 l 1,0,-1
EndSplineSet
Validated: 1
EndChar

StartChar: I
Encoding: 73 73 28
Width: 253
Flags: W
LayerCount: 2
Fore
SplineSet
199 500 m 1,0,-1
 0 500 l 1,1,-1
 0 592 l 1,2,-1
 199 592 l 1,3,-1
 199 500 l 1,0,-1
199 0 m 1,4,-1
 0 0 l 1,5,-1
 0 389 l 1,6,-1
 98 389 l 1,7,-1
 98 294 l 1,8,-1
 199 294 l 1,9,-1
 199 0 l 1,4,-1
EndSplineSet
Validated: 1
EndChar

StartChar: J
Encoding: 74 74 29
Width: 350
Flags: W
LayerCount: 2
Fore
SplineSet
294 502 m 1,0,-1
 95 502 l 1,1,-1
 95 594 l 1,2,-1
 294 594 l 1,3,-1
 294 502 l 1,0,-1
294 2 m 1,4,-1
 0 2 l 1,5,-1
 0 100 l 1,6,-1
 95 100 l 1,7,-1
 95 302 l 1,8,-1
 191 302 l 1,9,-1
 191 391 l 1,10,-1
 294 391 l 1,11,-1
 294 2 l 1,4,-1
EndSplineSet
Validated: 1
EndChar

StartChar: K
Encoding: 75 75 30
Width: 555
Flags: W
LayerCount: 2
Fore
SplineSet
497 0 m 1,0,-1
 399 0 l 1,1,-1
 399 196 l 1,2,-1
 202 196 l 1,3,-1
 202 0 l 1,4,-1
 0 0 l 1,5,-1
 0 502 l 1,6,-1
 107 502 l 1,7,-1
 107 592 l 1,8,-1
 202 592 l 1,9,-1
 202 297 l 1,10,-1
 310 297 l 1,11,-1
 310 592 l 1,12,-1
 407 592 l 1,13,-1
 407 297 l 1,14,-1
 497 297 l 1,15,-1
 497 0 l 1,0,-1
EndSplineSet
Validated: 1
EndChar

StartChar: L
Encoding: 76 76 31
Width: 434
Flags: WO
LayerCount: 2
Fore
SplineSet
401 0 m 5,0,-1
 0 0 l 5,1,-1
 0 502 l 5,2,-1
 107 502 l 5,3,-1
 107 592 l 5,4,-1
 205 592 l 5,5,-1
 205 92 l 5,6,-1
 401 92 l 5,7,-1
 401 0 l 5,0,-1
EndSplineSet
Validated: 1
EndChar

StartChar: M
Encoding: 77 77 32
Width: 654
Flags: W
LayerCount: 2
Fore
SplineSet
592 2 m 1,0,-1
 494 2 l 1,1,-1
 494 401 l 1,2,-1
 401 401 l 1,3,-1
 401 2 l 1,4,-1
 292 2 l 1,5,-1
 292 401 l 1,6,-1
 199 401 l 1,7,-1
 199 2 l 1,8,-1
 0 2 l 1,9,-1
 0 502 l 1,10,-1
 95 502 l 1,11,-1
 95 606 l 1,12,-1
 503 606 l 1,13,-1
 503 501 l 1,14,-1
 592 501 l 1,15,-1
 592 2 l 1,0,-1
EndSplineSet
Validated: 1
EndChar

StartChar: N
Encoding: 78 78 33
Width: 657
Flags: W
LayerCount: 2
Fore
SplineSet
592 2 m 1,0,-1
 292 2 l 1,1,-1
 292 496 l 1,2,-1
 199 496 l 1,3,-1
 199 2 l 1,4,-1
 0 2 l 1,5,-1
 0 505 l 1,6,-1
 95 505 l 1,7,-1
 95 606 l 1,8,-1
 407 606 l 1,9,-1
 407 112 l 1,10,-1
 500 112 l 1,11,-1
 500 606 l 1,12,-1
 592 606 l 1,13,-1
 592 2 l 1,0,-1
EndSplineSet
Validated: 1
EndChar

StartChar: O
Encoding: 79 79 34
Width: 454
Flags: W
LayerCount: 2
Fore
SplineSet
389 2 m 1,0,-1
 0 2 l 1,1,-1
 0 505 l 1,2,-1
 95 505 l 1,3,-1
 95 606 l 1,4,-1
 389 606 l 1,5,-1
 389 2 l 1,0,-1
294 109 m 1,6,-1
 294 499 l 1,7,-1
 202 499 l 1,8,-1
 202 109 l 1,9,-1
 294 109 l 1,6,-1
EndSplineSet
Validated: 1
EndChar

StartChar: P
Encoding: 80 80 35
Width: 441
Flags: W
LayerCount: 2
Fore
SplineSet
389 199 m 1,0,-1
 187 199 l 1,1,-1
 187 2 l 1,2,-1
 0 2 l 1,3,-1
 0 505 l 1,4,-1
 95 505 l 1,5,-1
 95 606 l 1,6,-1
 389 606 l 1,7,-1
 389 199 l 1,0,-1
294 312 m 1,8,-1
 294 499 l 1,9,-1
 191 499 l 1,10,-1
 191 312 l 1,11,-1
 294 312 l 1,8,-1
EndSplineSet
Validated: 1
EndChar

StartChar: Q
Encoding: 81 81 36
Width: 548
Flags: W
LayerCount: 2
Fore
SplineSet
497 103 m 1,0,-1
 404 103 l 1,1,-1
 404 2 l 1,2,-1
 0 2 l 1,3,-1
 0 505 l 1,4,-1
 107 505 l 1,5,-1
 107 606 l 1,6,-1
 404 606 l 1,7,-1
 404 201 l 1,8,-1
 497 201 l 1,9,-1
 497 103 l 1,0,-1
306 109 m 1,10,-1
 306 499 l 1,11,-1
 203 499 l 1,12,-1
 203 109 l 1,13,-1
 306 109 l 1,10,-1
EndSplineSet
Validated: 1
EndChar

StartChar: R
Encoding: 82 82 37
Width: 555
Flags: W
LayerCount: 2
Fore
SplineSet
497 2 m 1,0,-1
 399 2 l 1,1,-1
 399 199 l 1,2,-1
 199 199 l 1,3,-1
 199 2 l 1,4,-1
 0 2 l 1,5,-1
 0 505 l 1,6,-1
 107 505 l 1,7,-1
 107 606 l 1,8,-1
 407 606 l 1,9,-1
 407 308 l 1,10,-1
 497 308 l 1,11,-1
 497 2 l 1,0,-1
294 312 m 1,12,-1
 294 499 l 1,13,-1
 202 499 l 1,14,-1
 202 312 l 1,15,-1
 294 312 l 1,12,-1
EndSplineSet
Validated: 1
EndChar

StartChar: S
Encoding: 83 83 38
Width: 551
Flags: W
LayerCount: 2
Fore
SplineSet
497 0 m 1,0,-1
 0 0 l 1,1,-1
 0 98 l 1,2,-1
 399 98 l 1,3,-1
 399 202 l 1,4,-1
 0 202 l 1,5,-1
 0 502 l 1,6,-1
 95 502 l 1,7,-1
 95 592 l 1,8,-1
 497 592 l 1,9,-1
 497 494 l 1,10,-1
 205 494 l 1,11,-1
 205 401 l 1,12,-1
 407 401 l 1,13,-1
 407 294 l 1,14,-1
 497 294 l 1,15,-1
 497 0 l 1,0,-1
EndSplineSet
Validated: 1
EndChar

StartChar: T
Encoding: 84 84 39
Width: 452
Flags: W
LayerCount: 2
Fore
SplineSet
401 404 m 1,0,-1
 294 404 l 1,1,-1
 294 2 l 1,2,-1
 196 2 l 1,3,-1
 196 404 l 1,4,-1
 0 404 l 1,5,-1
 0 505 l 1,6,-1
 95 505 l 1,7,-1
 95 594 l 1,8,-1
 401 594 l 1,9,-1
 401 404 l 1,0,-1
EndSplineSet
Validated: 1
EndChar

StartChar: U
Encoding: 85 85 40
Width: 562
Flags: W
LayerCount: 2
Fore
SplineSet
497 0 m 1,0,-1
 0 0 l 1,1,-1
 0 502 l 1,2,-1
 95 502 l 1,3,-1
 95 592 l 1,4,-1
 205 592 l 1,5,-1
 205 98 l 1,6,-1
 393 98 l 1,7,-1
 393 592 l 1,8,-1
 497 592 l 1,9,-1
 497 0 l 1,0,-1
EndSplineSet
Validated: 1
EndChar

StartChar: V
Encoding: 86 86 41
Width: 552
Flags: W
LayerCount: 2
Fore
SplineSet
497 292 m 1,0,-1
 395 292 l 1,1,-1
 395 0 l 1,2,-1
 89 0 l 1,3,-1
 89 92 l 1,4,-1
 0 92 l 1,5,-1
 0 592 l 1,6,-1
 98 592 l 1,7,-1
 98 499 l 1,8,-1
 193 499 l 1,9,-1
 193 101 l 1,10,-1
 298 101 l 1,11,-1
 298 500 l 1,12,-1
 387 500 l 1,13,-1
 387 592 l 1,14,-1
 497 592 l 1,15,-1
 497 292 l 1,0,-1
EndSplineSet
Validated: 1
EndChar

StartChar: W
Encoding: 87 87 42
Width: 669
Flags: W
LayerCount: 2
Fore
SplineSet
604 0 m 1,0,-1
 0 0 l 1,1,-1
 0 502 l 1,2,-1
 107 502 l 1,3,-1
 107 592 l 1,4,-1
 205 592 l 1,5,-1
 205 98 l 1,6,-1
 310 98 l 1,7,-1
 310 294 l 1,8,-1
 407 294 l 1,9,-1
 407 98 l 1,10,-1
 500 98 l 1,11,-1
 500 592 l 1,12,-1
 604 592 l 1,13,-1
 604 0 l 1,0,-1
EndSplineSet
Validated: 1
EndChar

StartChar: X
Encoding: 88 88 43
Width: 749
Flags: W
LayerCount: 2
Fore
SplineSet
699 0 m 1,0,-1
 405 0 l 1,1,-1
 405 92 l 1,2,-1
 300 92 l 1,3,-1
 300 0 l 1,4,-1
 0 0 l 1,5,-1
 0 92 l 1,6,-1
 89 92 l 1,7,-1
 89 199 l 1,8,-1
 200 199 l 1,9,-1
 200 292 l 1,10,-1
 95 292 l 1,11,-1
 95 494 l 1,12,-1
 0 494 l 1,13,-1
 0 592 l 1,14,-1
 199 592 l 1,15,-1
 199 502 l 1,16,-1
 294 502 l 1,17,-1
 294 404 l 1,18,-1
 399 404 l 1,19,-1
 399 497 l 1,20,-1
 494 497 l 1,21,-1
 494 592 l 1,22,-1
 699 592 l 1,23,-1
 699 500 l 1,24,-1
 610 500 l 1,25,-1
 610 298 l 1,26,-1
 500 298 l 1,27,-1
 500 205 l 1,28,-1
 604 205 l 1,29,-1
 604 98 l 1,30,-1
 699 98 l 1,31,-1
 699 0 l 1,0,-1
EndSplineSet
Validated: 1
EndChar

StartChar: Y
Encoding: 89 89 44
Width: 556
Flags: W
LayerCount: 2
Fore
SplineSet
497 187 m 1,0,-1
 395 187 l 1,1,-1
 395 0 l 1,2,-1
 185 0 l 1,3,-1
 185 188 l 1,4,-1
 0 188 l 1,5,-1
 0 502 l 1,6,-1
 95 502 l 1,7,-1
 95 592 l 1,8,-1
 193 592 l 1,9,-1
 193 300 l 1,10,-1
 387 300 l 1,11,-1
 387 592 l 1,12,-1
 497 592 l 1,13,-1
 497 187 l 1,0,-1
EndSplineSet
Validated: 1
EndChar

StartChar: Z
Encoding: 90 90 45
Width: 552
Flags: WO
LayerCount: 2
Fore
SplineSet
497 294 m 5,0,-1
 401 294 l 5,1,-1
 401 186 l 5,2,-1
 205 186 l 5,3,-1
 205 94 l 5,4,-1
 497 94 l 5,5,-1
 497 2 l 5,6,-1
 0 2 l 5,7,-1
 0 195 l 5,8,-1
 107 195 l 5,9,-1
 107 397 l 5,10,-1
 304 397 l 5,11,-1
 304 502 l 5,12,-1
 0 502 l 5,13,-1
 0 594 l 5,14,-1
 497 594 l 5,15,-1
 497 294 l 5,0,-1
EndSplineSet
Validated: 1
EndChar

StartChar: a
Encoding: 97 97 46
Width: 399
Flags: W
LayerCount: 2
Fore
SplineSet
351 79 m 1,0,-1
 269 79 l 1,1,-1
 269 154 l 1,2,-1
 199 154 l 1,3,-1
 199 79 l 1,4,-1
 50 79 l 1,5,-1
 50 455 l 1,6,-1
 121 455 l 1,7,-1
 121 532 l 1,8,-1
 351 532 l 1,9,-1
 351 79 l 1,0,-1
271 230 m 1,10,-1
 271 379 l 1,11,-1
 202 379 l 1,12,-1
 202 230 l 1,13,-1
 271 230 l 1,10,-1
EndSplineSet
Validated: 1
EndChar

StartChar: b
Encoding: 98 98 47
Width: 478
Flags: W
LayerCount: 2
Fore
SplineSet
435 76 m 1,0,-1
 62 76 l 1,1,-1
 62 452 l 1,2,-1
 133 452 l 1,3,-1
 133 529 l 1,4,-1
 367 529 l 1,5,-1
 367 296 l 1,6,-1
 435 296 l 1,7,-1
 435 76 l 1,0,-1
283 299 m 1,8,-1
 283 448 l 1,9,-1
 214 448 l 1,10,-1
 214 299 l 1,11,-1
 283 299 l 1,8,-1
363 156 m 1,12,-1
 363 225 l 1,13,-1
 214 225 l 1,14,-1
 214 156 l 1,15,-1
 363 156 l 1,12,-1
EndSplineSet
Validated: 1
EndChar

StartChar: c
Encoding: 99 99 48
Width: 372
Flags: W
LayerCount: 2
Fore
SplineSet
340 79 m 1,0,-1
 118 79 l 1,1,-1
 117 159 l 1,2,-1
 49 159 l 1,3,-1
 49 455 l 1,4,-1
 118 455 l 1,5,-1
 118 532 l 1,6,-1
 340 532 l 1,7,-1
 340 449 l 1,8,-1
 202 449 l 1,9,-1
 203 157 l 1,10,-1
 340 157 l 1,11,-1
 340 79 l 1,0,-1
EndSplineSet
Validated: 1
EndChar

StartChar: d
Encoding: 100 100 49
Width: 388
Flags: W
LayerCount: 2
Fore
SplineSet
341 76 m 1,0,-1
 49 76 l 1,1,-1
 49 381 l 1,2,-1
 192 381 l 1,3,-1
 192 529 l 1,4,-1
 274 529 l 1,5,-1
 274 448 l 1,6,-1
 341 448 l 1,7,-1
 341 76 l 1,0,-1
189 156 m 1,8,-1
 189 296 l 1,9,-1
 120 296 l 1,10,-1
 120 156 l 1,11,-1
 189 156 l 1,8,-1
EndSplineSet
Validated: 1
EndChar

StartChar: e
Encoding: 101 101 50
Width: 384
Flags: W
LayerCount: 2
Fore
SplineSet
351 76 m 1,0,-1
 50 76 l 1,1,-1
 50 452 l 1,2,-1
 130 452 l 1,3,-1
 130 529 l 1,4,-1
 351 529 l 1,5,-1
 351 446 l 1,6,-1
 204 446 l 1,7,-1
 204 296 l 1,8,-1
 280 296 l 1,9,-1
 280 223 l 1,10,-1
 204 223 l 1,11,-1
 204 154 l 1,12,-1
 351 154 l 1,13,-1
 351 76 l 1,0,-1
EndSplineSet
Validated: 1
EndChar

StartChar: f
Encoding: 102 102 51
Width: 378
Flags: W
LayerCount: 2
Fore
SplineSet
351 446 m 1,0,-1
 202 446 l 1,1,-1
 202 296 l 1,2,-1
 271 296 l 1,3,-1
 271 223 l 1,4,-1
 202 223 l 1,5,-1
 202 76 l 1,6,-1
 50 76 l 1,7,-1
 50 452 l 1,8,-1
 130 452 l 1,9,-1
 130 529 l 1,10,-1
 351 529 l 1,11,-1
 351 446 l 1,0,-1
EndSplineSet
Validated: 1
EndChar

StartChar: g
Encoding: 103 103 52
Width: 468
Flags: W
LayerCount: 2
Fore
SplineSet
435 74 m 1,0,-1
 131 74 l 1,1,-1
 131 143 l 1,2,-1
 62 143 l 1,3,-1
 62 451 l 1,4,-1
 131 451 l 1,5,-1
 131 518 l 1,6,-1
 365 518 l 1,7,-1
 365 445 l 1,8,-1
 216 445 l 1,9,-1
 216 150 l 1,10,-1
 359 150 l 1,11,-1
 359 226 l 1,12,-1
 286 226 l 1,13,-1
 286 295 l 1,14,-1
 435 295 l 1,15,-1
 435 74 l 1,0,-1
EndSplineSet
Validated: 1
EndChar

StartChar: h
Encoding: 104 104 53
Width: 399
Flags: W
LayerCount: 2
Fore
SplineSet
351 74 m 1,0,-1
 271 74 l 1,1,-1
 271 221 l 1,2,-1
 202 221 l 1,3,-1
 202 74 l 1,4,-1
 50 74 l 1,5,-1
 50 451 l 1,6,-1
 121 451 l 1,7,-1
 121 518 l 1,8,-1
 202 518 l 1,9,-1
 202 299 l 1,10,-1
 271 299 l 1,11,-1
 271 518 l 1,12,-1
 351 518 l 1,13,-1
 351 74 l 1,0,-1
EndSplineSet
Validated: 1
EndChar

StartChar: i
Encoding: 105 105 54
Width: 215
Flags: W
LayerCount: 2
Fore
SplineSet
174 449 m 1,0,-1
 25 449 l 1,1,-1
 25 518 l 1,2,-1
 174 518 l 1,3,-1
 174 449 l 1,0,-1
174 74 m 1,4,-1
 25 74 l 1,5,-1
 25 366 l 1,6,-1
 98 366 l 1,7,-1
 98 295 l 1,8,-1
 174 295 l 1,9,-1
 174 74 l 1,4,-1
EndSplineSet
Validated: 1
EndChar

StartChar: j
Encoding: 106 106 55
Width: 299
Flags: W
LayerCount: 2
Fore
SplineSet
257 451 m 1,0,-1
 108 451 l 1,1,-1
 108 520 l 1,2,-1
 257 520 l 1,3,-1
 257 451 l 1,0,-1
257 76 m 1,4,-1
 37 76 l 1,5,-1
 37 150 l 1,6,-1
 108 150 l 1,7,-1
 108 301 l 1,8,-1
 180 301 l 1,9,-1
 180 368 l 1,10,-1
 257 368 l 1,11,-1
 257 76 l 1,4,-1
EndSplineSet
Validated: 1
EndChar

StartChar: k
Encoding: 107 107 56
Width: 478
Flags: W
LayerCount: 2
Fore
SplineSet
435 74 m 1,0,-1
 361 74 l 1,1,-1
 361 221 l 1,2,-1
 214 221 l 1,3,-1
 214 74 l 1,4,-1
 62 74 l 1,5,-1
 62 451 l 1,6,-1
 142 451 l 1,7,-1
 142 518 l 1,8,-1
 214 518 l 1,9,-1
 214 297 l 1,10,-1
 295 297 l 1,11,-1
 295 518 l 1,12,-1
 367 518 l 1,13,-1
 367 297 l 1,14,-1
 435 297 l 1,15,-1
 435 74 l 1,0,-1
EndSplineSet
Validated: 1
EndChar

StartChar: l
Encoding: 108 108 57
Width: 376
Flags: W
LayerCount: 2
Fore
SplineSet
351 74 m 1,0,-1
 50 74 l 1,1,-1
 50 451 l 1,2,-1
 130 451 l 1,3,-1
 130 518 l 1,4,-1
 204 518 l 1,5,-1
 204 143 l 1,6,-1
 351 143 l 1,7,-1
 351 74 l 1,0,-1
EndSplineSet
Validated: 1
EndChar

StartChar: m
Encoding: 109 109 58
Width: 565
Flags: W
LayerCount: 2
Fore
SplineSet
518 78 m 1,0,-1
 445 78 l 1,1,-1
 445 377 l 1,2,-1
 375 377 l 1,3,-1
 375 78 l 1,4,-1
 293 78 l 1,5,-1
 293 377 l 1,6,-1
 223 377 l 1,7,-1
 223 78 l 1,8,-1
 74 78 l 1,9,-1
 74 453 l 1,10,-1
 145 453 l 1,11,-1
 145 531 l 1,12,-1
 451 531 l 1,13,-1
 451 452 l 1,14,-1
 518 452 l 1,15,-1
 518 78 l 1,0,-1
EndSplineSet
Validated: 1
EndChar

StartChar: n
Encoding: 110 110 59
Width: 567
Flags: W
LayerCount: 2
Fore
SplineSet
518 78 m 1,0,-1
 293 78 l 1,1,-1
 293 448 l 1,2,-1
 223 448 l 1,3,-1
 223 78 l 1,4,-1
 74 78 l 1,5,-1
 74 455 l 1,6,-1
 145 455 l 1,7,-1
 145 531 l 1,8,-1
 379 531 l 1,9,-1
 379 160 l 1,10,-1
 449 160 l 1,11,-1
 449 531 l 1,12,-1
 518 531 l 1,13,-1
 518 78 l 1,0,-1
EndSplineSet
Validated: 1
EndChar

StartChar: o
Encoding: 111 111 60
Width: 389
Flags: W
LayerCount: 2
Fore
SplineSet
340 78 m 1,0,-1
 49 78 l 1,1,-1
 49 455 l 1,2,-1
 120 455 l 1,3,-1
 120 531 l 1,4,-1
 340 531 l 1,5,-1
 340 78 l 1,0,-1
269 158 m 1,6,-1
 269 450 l 1,7,-1
 200 450 l 1,8,-1
 200 158 l 1,9,-1
 269 158 l 1,6,-1
EndSplineSet
Validated: 1
EndChar

StartChar: p
Encoding: 112 112 61
Width: 380
Flags: W
LayerCount: 2
Fore
SplineSet
340 225 m 1,0,-1
 189 225 l 1,1,-1
 189 78 l 1,2,-1
 49 78 l 1,3,-1
 49 455 l 1,4,-1
 120 455 l 1,5,-1
 120 531 l 1,6,-1
 340 531 l 1,7,-1
 340 225 l 1,0,-1
269 310 m 1,8,-1
 269 450 l 1,9,-1
 192 450 l 1,10,-1
 192 310 l 1,11,-1
 269 310 l 1,8,-1
EndSplineSet
Validated: 1
EndChar

StartChar: q
Encoding: 113 113 62
Width: 473
Flags: W
LayerCount: 2
Fore
SplineSet
435 153 m 1,0,-1
 365 153 l 1,1,-1
 365 78 l 1,2,-1
 62 78 l 1,3,-1
 62 455 l 1,4,-1
 142 455 l 1,5,-1
 142 531 l 1,6,-1
 365 531 l 1,7,-1
 365 227 l 1,8,-1
 435 227 l 1,9,-1
 435 153 l 1,0,-1
292 158 m 1,10,-1
 292 450 l 1,11,-1
 214 450 l 1,12,-1
 214 158 l 1,13,-1
 292 158 l 1,10,-1
EndSplineSet
Validated: 1
EndChar

StartChar: r
Encoding: 114 114 63
Width: 478
Flags: W
LayerCount: 2
Fore
SplineSet
435 78 m 1,0,-1
 361 78 l 1,1,-1
 361 225 l 1,2,-1
 211 225 l 1,3,-1
 211 78 l 1,4,-1
 62 78 l 1,5,-1
 62 455 l 1,6,-1
 142 455 l 1,7,-1
 142 531 l 1,8,-1
 367 531 l 1,9,-1
 367 307 l 1,10,-1
 435 307 l 1,11,-1
 435 78 l 1,0,-1
283 310 m 1,12,-1
 283 450 l 1,13,-1
 214 450 l 1,14,-1
 214 310 l 1,15,-1
 283 310 l 1,12,-1
EndSplineSet
Validated: 1
EndChar

StartChar: s
Encoding: 115 115 64
Width: 475
Flags: W
LayerCount: 2
Fore
SplineSet
435 74 m 1,0,-1
 62 74 l 1,1,-1
 62 148 l 1,2,-1
 361 148 l 1,3,-1
 361 226 l 1,4,-1
 62 226 l 1,5,-1
 62 451 l 1,6,-1
 133 451 l 1,7,-1
 133 518 l 1,8,-1
 435 518 l 1,9,-1
 435 445 l 1,10,-1
 216 445 l 1,11,-1
 216 375 l 1,12,-1
 367 375 l 1,13,-1
 367 295 l 1,14,-1
 435 295 l 1,15,-1
 435 74 l 1,0,-1
EndSplineSet
Validated: 1
EndChar

StartChar: t
Encoding: 116 116 65
Width: 389
Flags: W
LayerCount: 2
Fore
SplineSet
351 378 m 1,0,-1
 271 378 l 1,1,-1
 271 76 l 1,2,-1
 197 76 l 1,3,-1
 197 378 l 1,4,-1
 50 378 l 1,5,-1
 50 453 l 1,6,-1
 121 453 l 1,7,-1
 121 520 l 1,8,-1
 351 520 l 1,9,-1
 351 378 l 1,0,-1
EndSplineSet
Validated: 1
EndChar

StartChar: u
Encoding: 117 117 66
Width: 483
Flags: W
LayerCount: 2
Fore
SplineSet
435 74 m 1,0,-1
 62 74 l 1,1,-1
 62 451 l 1,2,-1
 133 451 l 1,3,-1
 133 518 l 1,4,-1
 216 518 l 1,5,-1
 216 148 l 1,6,-1
 357 148 l 1,7,-1
 357 518 l 1,8,-1
 435 518 l 1,9,-1
 435 74 l 1,0,-1
EndSplineSet
Validated: 1
EndChar

StartChar: v
Encoding: 118 118 67
Width: 476
Flags: W
LayerCount: 2
Fore
SplineSet
435 293 m 1,0,-1
 358 293 l 1,1,-1
 358 74 l 1,2,-1
 129 74 l 1,3,-1
 129 143 l 1,4,-1
 62 143 l 1,5,-1
 62 518 l 1,6,-1
 136 518 l 1,7,-1
 136 448 l 1,8,-1
 207 448 l 1,9,-1
 207 150 l 1,10,-1
 286 150 l 1,11,-1
 286 449 l 1,12,-1
 352 449 l 1,13,-1
 352 518 l 1,14,-1
 435 518 l 1,15,-1
 435 293 l 1,0,-1
EndSplineSet
Validated: 1
EndChar

StartChar: w
Encoding: 119 119 68
Width: 577
Flags: W
LayerCount: 2
Fore
SplineSet
529 74 m 1,0,-1
 76 74 l 1,1,-1
 76 451 l 1,2,-1
 156 451 l 1,3,-1
 156 518 l 1,4,-1
 229 518 l 1,5,-1
 229 148 l 1,6,-1
 308 148 l 1,7,-1
 308 295 l 1,8,-1
 381 295 l 1,9,-1
 381 148 l 1,10,-1
 451 148 l 1,11,-1
 451 518 l 1,12,-1
 529 518 l 1,13,-1
 529 74 l 1,0,-1
EndSplineSet
Validated: 1
EndChar

StartChar: x
Encoding: 120 120 69
Width: 649
Flags: W
LayerCount: 2
Fore
SplineSet
612 74 m 1,0,-1
 391 74 l 1,1,-1
 391 143 l 1,2,-1
 312 143 l 1,3,-1
 312 74 l 1,4,-1
 87 74 l 1,5,-1
 87 143 l 1,6,-1
 154 143 l 1,7,-1
 154 223 l 1,8,-1
 237 223 l 1,9,-1
 237 293 l 1,10,-1
 159 293 l 1,11,-1
 159 445 l 1,12,-1
 87 445 l 1,13,-1
 87 518 l 1,14,-1
 237 518 l 1,15,-1
 237 451 l 1,16,-1
 308 451 l 1,17,-1
 308 377 l 1,18,-1
 387 377 l 1,19,-1
 387 447 l 1,20,-1
 458 447 l 1,21,-1
 458 518 l 1,22,-1
 612 518 l 1,23,-1
 612 449 l 1,24,-1
 545 449 l 1,25,-1
 545 298 l 1,26,-1
 462 298 l 1,27,-1
 462 228 l 1,28,-1
 540 228 l 1,29,-1
 540 148 l 1,30,-1
 612 148 l 1,31,-1
 612 74 l 1,0,-1
EndSplineSet
Validated: 1
EndChar

StartChar: y
Encoding: 121 121 70
Width: 479
Flags: W
LayerCount: 2
Fore
SplineSet
435 214 m 1,0,-1
 358 214 l 1,1,-1
 358 74 l 1,2,-1
 201 74 l 1,3,-1
 201 215 l 1,4,-1
 62 215 l 1,5,-1
 62 451 l 1,6,-1
 133 451 l 1,7,-1
 133 518 l 1,8,-1
 207 518 l 1,9,-1
 207 299 l 1,10,-1
 352 299 l 1,11,-1
 352 518 l 1,12,-1
 435 518 l 1,13,-1
 435 214 l 1,0,-1
EndSplineSet
Validated: 1
EndChar

StartChar: z
Encoding: 122 122 71
Width: 476
Flags: W
LayerCount: 2
Fore
SplineSet
435 295 m 1,0,-1
 363 295 l 1,1,-1
 363 214 l 1,2,-1
 216 214 l 1,3,-1
 216 145 l 1,4,-1
 435 145 l 1,5,-1
 435 76 l 1,6,-1
 62 76 l 1,7,-1
 62 221 l 1,8,-1
 142 221 l 1,9,-1
 142 372 l 1,10,-1
 290 372 l 1,11,-1
 290 451 l 1,12,-1
 62 451 l 1,13,-1
 62 520 l 1,14,-1
 435 520 l 1,15,-1
 435 295 l 1,0,-1
EndSplineSet
Validated: 1
EndChar

StartChar: underscore
Encoding: 95 95 101
Width: 434
Flags: WO
LayerCount: 2
Fore
SplineSet
0 0 m 25,0,-1
0 92 m 21,1,-1
 434 92 l 5,2,-1
 434 0 l 1,3,-1
 0 0 l 9,4,-1
 0 92 l 21,1,-1
EndSplineSet
Validated: 1
EndChar
